<?xml version="1.0" encoding="utf-8"?>
<!-- Generator: Adobe Illustrator 24.3.0, SVG Export Plug-In . SVG Version: 6.00 Build 0)  -->
<svg version="1.1" id="Camada_1" xmlns="http://www.w3.org/2000/svg" xmlns:xlink="http://www.w3.org/1999/xlink" x="0px" y="0px"
	 viewBox="0 0 1920 1080" style="enable-background:new 0 0 1920 1080;" xml:space="preserve">
<style type="text/css">
	.st0{fill:none;}
	.st1{fill:#36BDB2;}
	.st2{fill:#FFFFFF;}
	.st3{font-family:'MorganBig-Regular';}
	.st4{font-size:120px;}
</style>
<rect x="71" y="151" width="1792" height="861"/>
<g>
	<rect id="canvas_background_1_" x="360" y="290" class="st0" width="1336" height="502"/>
</g>
<g id="svg_1_1_" transform="matrix(1,0,0,1,-1120.72,-213.399) ">
	<g id="svg_41_1_" transform="matrix(8.33333,0,0,8.33333,0,0) ">
		<g id="svg_42_1_" transform="matrix(1,0,0,1,197.202,26.1819) ">
			<path id="svg_43_1_" class="st1" d="M43.32,78.03L34.65,67.9c5.08-0.33,8.48-2.24,8.48-8.02v-6.17c0-5.22-2.58-8.81-9-8.81h-19.8
				v33.12h8.4v-9.36h3.21l7.62,9.36H43.32L43.32,78.03z M34.84,60.63c0,1.63-0.96,2.16-2.44,2.16h-9.56v-11.4h9.56
				c1.48,0,2.44,0.53,2.44,2.16C34.84,53.54,34.84,60.63,34.84,60.63z M76,67.47V44.91h-7.8v22.34c0,4.45-3.78,4.79-5.93,4.79
				c-4.02,0-6.07-1.63-6.07-4.16V44.91h-8.4v22.83c0,8.33,6.46,10.91,14.17,10.91c7.61,0,14.11-2.44,14.11-11.2 M107.44,70.35v-6.67
				c0-4.12-2.64-5.93-7.04-5.93h-9.62c-0.86,0-1.82-0.24-1.82-1.72V53.3c0-0.91,0.34-1.91,2.11-1.91h15.17v-6.22l-0.43-0.38H88.63
				c-6.4,0-8.07,3.77-8.07,7.5v6.78c0,3.77,1.67,6.35,7.35,6.35h9.22c1.24,0,1.91,0.43,1.91,1.86v2.8c0,0.67-0.1,1.58-1.87,1.58
				H81.28v6.17l0.34,0.43h17.65c5.65,0,8.14-2.68,8.14-7.94 M140.68,51.51v-6.6l-29.76,0v6.6h10.68v26.52h8.4V51.51H140.68z
				 M10.36,51.51H-0.32v26.52h-8.4V51.51H-19.4v-6.6h9.53c1.32,1.45,3.23,2.36,5.35,2.36c2.12,0,4.03-0.91,5.35-2.36h9.53
				L10.36,51.51L10.36,51.51z M-10.33,40.1c0-3.22,2.61-5.83,5.83-5.83c3.22,0,5.83,2.61,5.83,5.83c0,3.22-2.61,5.83-5.83,5.84
				C-7.72,45.93-10.33,43.32-10.33,40.1"/>
		</g>
	</g>
	<g id="svg_62_1_" transform="matrix(8.33333,0,0,8.33333,0,0) ">
	</g>
	<g id="svg_83_1_" transform="matrix(8.33333,0,0,8.33333,0,0) ">
		<g id="svg_84_1_" transform="matrix(1,0,0,1,197.202,26.1819) ">
			<path id="svg_85_1_" class="st2" d="M43.32,78.03L34.65,67.9c5.08-0.33,8.48-2.24,8.48-8.02v-6.17c0-5.22-2.58-8.81-9-8.81h-19.8
				v33.12h8.4v-9.36h3.21l7.62,9.36H43.32L43.32,78.03z M34.84,60.63c0,1.63-0.96,2.16-2.44,2.16h-9.56v-11.4h9.56
				c1.48,0,2.44,0.53,2.44,2.16C34.84,53.54,34.84,60.63,34.84,60.63z M76,67.47V44.91h-7.8v22.34c0,4.45-3.78,4.79-5.93,4.79
				c-4.02,0-6.07-1.63-6.07-4.16V44.91h-8.4v22.83c0,8.33,6.46,10.91,14.17,10.91c7.61,0,14.11-2.44,14.11-11.2 M107.44,70.35v-6.67
				c0-4.12-2.64-5.93-7.04-5.93h-9.62c-0.86,0-1.82-0.24-1.82-1.72V53.3c0-0.91,0.34-1.91,2.11-1.91h15.17v-6.22l-0.43-0.38H88.63
				c-6.4,0-8.07,3.77-8.07,7.5v6.78c0,3.77,1.67,6.35,7.35,6.35h9.22c1.24,0,1.91,0.43,1.91,1.86v2.8c0,0.67-0.1,1.58-1.87,1.58
				H81.28v6.17l0.34,0.43h17.65c5.65,0,8.14-2.68,8.14-7.94 M140.68,51.51v-6.6l-29.76,0v6.6h10.68v26.52h8.4V51.51H140.68z
				 M10.36,51.51H-0.32v26.52h-8.4V51.51H-19.4v-6.6h9.53c1.32,1.45,3.23,2.36,5.35,2.36c2.12,0,4.03-0.91,5.35-2.36h9.53
				L10.36,51.51L10.36,51.51z M-10.33,40.1c0-3.22,2.61-5.83,5.83-5.83c3.22,0,5.83,2.61,5.83,5.83c0,3.22-2.61,5.83-5.83,5.84
				C-7.72,45.93-10.33,43.32-10.33,40.1"/>
		</g>
	</g>
</g>
<rect x="426.29" y="689.18" class="st0" width="469.71" height="111.82"/>
<text transform="matrix(1.03 0 0 1 437.8633 786.6104)" class="st2 st3 st4">ONLINE</text>
<rect x="847.39" y="994.22" class="st0" width="6.49" height="7.79"/>
</svg>
